<?xml version="1.0" encoding="UTF-8"?>
<svg viewBox="0 0 500 500" xmlns="http://www.w3.org/2000/svg" width="150px" height="150px"> 
 <g transform="translate(0 -552.36)">
  <path d="m123.72 660.8c-181.58 103.84-61.941 227.43 76.097 210.31 169.78 19.714 241.7-124.08 108.78-201.09-49.56-23.213-85.556-20.379-184.88-9.2294z" stroke="#000" stroke-width="1.5871"/>
  <path d="m81.958 696.39 21.978-90.108 41.757 71.427z" stroke="#000" stroke-width="1.5772"/>
  <path d="m277.56 686.5 42.856-78.02 25.274 129.67z" stroke="#000" stroke-width="1.5772"/>
  <path d="m200.64 871.11s-6.5933 103.3-20.879 113.18 72.526 28.571 93.405 8.791c38.318-32.658-30.351-100.04-38.461-125.27-25.067-78.665-34.065 3.2966-34.065 3.2966z" stroke="#000" stroke-width="1.5772"/>
  <path d="m271.87 969.4s59.639-4.8034 81.072-48.035 8.3868-77.817 13.046-91.266 27.024-67.249 81.072-36.506 49.389 75.895 25.16 87.423-66.713 10.049-39.138 0c26.621-9.7021 60.769-26.74 22.365-60.524-29.565-26.008-41.02-26.244-64.299-5.764-28.114 24.734 14.535 86.247-39.138 134.5-49.567 44.56-82.004 29.782-82.004 29.782z" stroke="#000" stroke-width="1.3581"/>
  <g transform="matrix(1.8132 0 0 1.8809 -468.1 -1425.1)">
   <path d="m384.5 1159.4c10.094-12.278 32.088-55.363 69.76 1.4819-10.793 14.515-19.918 22.12-33.219 25.685 1.1119-3.8722-22.558-0.2357-36.541-27.167z" fill="#fff" stroke="#fff" stroke-width=".65003"/>
   <path transform="matrix(.56362 0 0 .78396 293.01 136.07)" d="m255.69 1303.2c0 18.085-14.661 32.745-32.745 32.745s-32.745-14.661-32.745-32.745 14.661-32.745 32.745-32.745 32.745 14.661 32.745 32.745z" stroke="#000" stroke-width=".9"/>
  </g>
  <g transform="matrix(1.8132 0 0 1.8809 -640.45 -1425.1)">
   <path d="m384.5 1159.4c10.094-12.278 32.088-55.363 69.76 1.4819-10.793 14.515-19.918 22.12-33.219 25.685 1.1119-3.8722-22.558-0.2357-36.541-27.167z" fill="#fff" stroke="#fff" stroke-width=".65003"/>
   <path transform="matrix(.56362 0 0 .78396 293.01 136.07)" d="m255.69 1303.2c0 18.085-14.661 32.745-32.745 32.745s-32.745-14.661-32.745-32.745 14.661-32.745 32.745-32.745 32.745 14.661 32.745 32.745z" stroke="#000" stroke-width=".9"/>
  </g>
  <path transform="translate(0 552.36)" d="m120.77 254.85c1.9012-0.65261 3.9474-0.6772 5.8621-1.232 1.4689-0.48588 3.0015-0.64192 4.5368-0.72537l0.75976-0.0252-9.327 6.8489-0.74257 0.051c-1.4961 0.15177-2.9582 0.454-4.4099 0.84677-1.9705 0.34537-3.9586 0.64733-5.842 1.3545l9.1628-7.1186z" stroke="#000" stroke-width=".9"/>
  <path transform="translate(0 552.36)" d="m124.82461,252.68434c2.09623-.0786 4.11003-.53944 6.15027-.96916 1.30987-.67404 2.71131-.96952 4.16268-1.11635 1.26527-.14645 2.73884.15794 3.82148-.66024 .64263.0375 1.41471,1.24572.76412,1.63102-6.15303,3.64397-6.95766,5.35064-11.52072,6.22106-1.5087.24321-3.04005.27119-4.56462.29566-1.52662.11291-3.1068-.19932-4.60083.16633-1.33875.38423-2.727.49264-4.1109.56498-1.00773.12952-2.05085-.0646-3.05606.0547-.43606.0518-.85136.21568-1.27733.32234-1.33411.40534-2.77224.18527-4.08964.59755-1.26124.50625-2.66843.32383-3.92981.763-1.30227.45064-2.68114.54251-4.046.61318-.96847.0315-.51053-.0447-1.37766.20397l9.25327-6.97356c.94678-.0745.46747-.0393 1.43795-.10542 1.34257-.13503 2.65343-.39491 3.95192-.76389 1.33175-.17319 2.64653-.40412 3.94969-.73253 1.37258-.13609 2.74475-.27141 4.08871-.599 1.45947-.226 2.94127-.10925 4.41009-.25278 1.37256-.12997 2.71784-.39106 4.07495-.62408 1.55257-.0526 3.10679-.004 4.65964-.0568 1.48429-.0545 2.98714-.11552 4.42115-.53914 3.62858-1.33467 9.72207-5.72623-8.52959,5.11713-.0711.0422.19269-.0931.24627-.0301 .88506,1.04058.95869.80412.69396,1.33416-1.31135.1732-2.62869.22845-3.94103.39177-1.40347.26308-2.70855.80008-4.08737,1.15244-2.06334.42898-4.14684.65054-6.233.93823l9.27841-6.94442z" stroke="#000" stroke-width=".9"/>
  <path transform="translate(0 552.36)" d="m293.29635,252.20304c1.10136-.003 2.18798-.00096 3.27928.15142 .85373.13742 1.7155.19915 2.57878.22906 .78948.0971 1.53734-.0667 2.30818-.19883 .75465-.17483 1.55369-.0479 2.29616-.25347 .65957-.23281 1.37064-.18606 2.03695-.36781 .75677-.20515 1.53805-.27223 2.31792-.31348 .74458.0608 1.43215-.1082 2.15063-.25494 .73022-.0456 1.4246-.23416 2.13928-.37228 .77426-.0445 1.50497-.25222 2.26276-.39036 .39208.0177 1.25966-.39045 1.56564.0336 .0835.11579.12655.256.18982.38399-13.69917,8.20381-.049.31445-.17066.3838-2.92276,1.66659-3.64951,2.81902-6.08142,3.12422-.83034.0789-1.66619.0712-2.49948.0764l-2.50951.00068c-.64168.0535-1.38439.13032-1.97641.40504-.62242.26819-1.30209.31379-1.96996.35246-.7685.032-1.53793.028-2.30693.0272l-2.34737-.004c-.65646.19533-1.32894.2921-2.00977.34529-.76085.0463-1.52351.0461-2.28547.0478l-2.34514-.002-2.34477-.00092-2.3438-2e-005-2.34373,1e-005h-2.34375c-.94719-.006-1.83751-.39249-2.76299-.5743-1.05732-.1384-2.10191-.34719-3.1611-.47563-1.15881-.2702-2.34039-.42356-3.51546-.60551-1.21427-.14643-2.42726-.20637-3.60102-.57009-.99645-.33145-2.04729-.41807-3.08874-.4809-.8755-.14219-1.69877-.46664-2.56706-.64348-.79142-.14201-1.59685-.1581-2.3985-.1692s-1.59102.001-2.38653-.002l-.49653-.003 4.66033-3.38712 .50662-.005c.80064-.006 1.6015-.008 2.40202.009 .82468.028 1.65194.0772 2.4581.26688 .83286.20505 1.64694.50209 2.50584.5836 1.06743.097 2.13442.23502 3.15708.57139 1.15985.28645 2.34438.37848 3.52628.538 1.18152.17913 2.36706.33061 3.53747.57612 1.06536.1543 2.12923.32455 3.18955.50897 .89766.20238 1.77876.52883 2.71311.46244l2.34375-1e-005 2.34373-1e-005 2.34384.00011 2.34504.001 2.34316-.001c.75305-.007 1.50782-.0146 2.25722-.097 .68213-.0888 1.35089-.27636 2.04002-.29243l2.34668.003c.76105-.003 1.52365-.002 2.28228-.0706 .6537-.0769 1.28486-.22287 1.90014-.46087 .68483-.13294 1.36624-.30277 2.07041-.25074 .83257.002 1.66516.006 2.49772-.00038 .82092-.0112 1.64931-.013 2.45779-.17323 .2512-.0649.34704-.0785.58139-.18066 .0791-.0345.3049-.16172.23026-.11839-1.59412.92545-6.42687,3.61052-4.78899,2.76492 3.5881-1.85243 9.89645-5.97195.35641.10015 .0685.0922.15238.17463.20537.27647 .0365.0701-.1538.0381-.23224.0477-.36479.0446-.73014.0867-1.08931.1678-.75075.16291-1.50617.26188-2.26259.39421-.71261.1549-1.43145.24676-2.14825.37802-.72365.14704-1.45046.15406-2.18657.18768-.76837.0686-1.52624.19434-2.27658.37518-.68859.0944-1.37163.20569-2.05017.35756-.76572.0604-1.53465.0979-2.29048.24603-.79106.13053-1.5796.1674-2.38058.0989-.86697-.051-1.72905-.14703-2.58755-.27921-1.08505-.12365-2.17575-.0905-3.26614-.071l4.68854-3.40642z" stroke="#000" stroke-width=".9"/>
 </g>
</svg>
