<?xml version="1.0" encoding="utf-8"?>
<!-- Generator: Adobe Illustrator 15.0.0, SVG Export Plug-In . SVG Version: 6.00 Build 0)  -->
<!DOCTYPE svg PUBLIC "-//W3C//DTD SVG 1.1//EN" "http://www.w3.org/Graphics/SVG/1.1/DTD/svg11.dtd">
<svg version="1.1" id="Layer_1" xmlns="http://www.w3.org/2000/svg" xmlns:xlink="http://www.w3.org/1999/xlink" x="0px" y="0px"
	 width="100px" height="100px" viewBox="0 0 500 500" enable-background="new 0 0 500 500" xml:space="preserve">
<g>
	<path fill="#fff" d="M200.544,373.177c0,0.001,25.386,2.478,37.771,2.478c12.38,0,37.771-2.478,37.771-2.478
		c109.592-10.524,103.397-146.126,103.397-146.126H238.315H97.14C97.14,227.051,90.949,362.652,200.544,373.177z"/>
	<path fill="#fff" d="M386.135,236.35c0,0-0.981,14.649-1.782,17.968c0,0,31.782,2.492,12.946,28.891
		c0,0-12.085,13.137-24.431,18.312l-6.738,19.512c0,0,45.71-16.398,52.104-44.35C424.63,248.733,401.9,238.979,386.135,236.35z"/>
	<path fill="#fff" d="M80.66,381.548c0,0,9.47,12.538,27.125,12.538h30.712l7.421,9.213h92.397h92.394l7.421-9.213h30.708
		c17.662,0,27.133-12.538,27.133-12.538H238.315H80.66z"/>
	<path fill="#fff" d="M223.649,202.964c73.107-15.726,61.628,13.599,61.628,13.599s25.929-8.074,3.402-24.225
		c-22.529-16.15-63.333-3.4-63.333-3.4c-56.105,12.75-51.432-1.7-51.432-1.7c-4.353-20.292,73.11-12.326,73.11-12.326
		c79.912-7.649,85.434-78.211,85.434-78.211c-38.254,82.456-80.757,66.733-125.387,66.733c-44.63,0-51.431,19.552-53.131,23.804
		C152.239,191.49,150.539,218.691,223.649,202.964z"/>
</g>
</svg>
