<?xml version="1.0" encoding="utf-8"?>
<!-- Generator: Adobe Illustrator 18.1.0, SVG Export Plug-In . SVG Version: 6.00 Build 0)  -->
<svg version="1.1" id="Layer_1" xmlns="http://www.w3.org/2000/svg" xmlns:xlink="http://www.w3.org/1999/xlink" x="0px" y="0px" width="75px" height="100px"
	 viewBox="0 0 500 500" enable-background="new 0 0 500 500" xml:space="preserve">
<path fill="#fff" d="M480.6,399.2c0,0-21-14.7-44.1-3.2l-54.4-54.4c19.5-25.1,31.9-56,33.8-89.5c0.7-5.7,1.1-11.5,1.1-17.4
	c0-31.5-9.8-60.8-26.1-85.2l45.6-45.6c23.1,11.5,44.1-3.2,44.1-3.2c47.6-39.3-7.3-63.7-7.3-63.7s-24.5-54.8-63.7-7.3
	c0,0-14.7,21-3.2,44.1l-44,44c-21-17.6-46.9-29.8-75.4-34.2c-12-2.7-24.6-4.1-37.4-4.1c-13.8,0-27.1,1.7-39.9,4.8
	c-27.1,4.7-51.8,16.6-72,33.5l-44-44c11.5-23.1-3.2-44.1-3.2-44.1C51.2-17.9,26.7,37,26.7,37s-54.8,24.5-7.3,63.7
	c0,0,21,14.7,44.1,3.2l45.6,45.6C92.6,173.8,83,203.1,83,234.8c0,1.3,0,2.7,0.1,4c0,1.3-0.1,2.7-0.1,4c0,37.4,13,71.7,34.5,99.3
	l-54,54c-23.1-11.5-44.1,3.2-44.1,3.2c-47.6,39.3,7.3,63.7,7.3,63.7s24.5,54.8,63.7,7.3c0,0,14.7-21,3.2-44.1l54.2-54.2
	c7.5,5.6,15.4,10.8,23.8,15.1v46.5h28.9v-34.7c6.9,2.1,14,3.7,21.2,4.9v29.8h17.5v-27.9c3.3,0.1,6.8,0.4,10.3,0.4
	c3.7,0,7.3-0.1,11-0.4v27.9h17.5v-29.9c7.2-1.2,14.4-2.9,21.2-5.1v35h28.9v-46.9c8.3-4.4,16.2-9.5,23.5-15.1l54.5,54.5
	c-11.5,23.1,3.2,44.1,3.2,44.1c39.3,47.6,63.7-7.3,63.7-7.3S528.2,438.7,480.6,399.2z M213.1,306.8c-7.7,5.9-50.6,47.2-74.3,23.4
	c-23.6-23.8-26.3-66.1-22.4-80.6c0,0,2.5-33.1,36.5-45.7s83.9-11.9,85.2,35.4C239.4,286.8,220.7,300.9,213.1,306.8z M252.5,364.5
	c-1.3,0-3.6,0-4.9,0c-31.4-0.3-26.2-18.2-26.2-18.2c4.1-29.1,14.8-36.9,14.8-36.9c7.6-5.5,19.9-5.5,27.5,0c0,0,10.8,7.7,14.8,36.9
	C278.6,346.3,283.8,364.2,252.5,364.5z M286.9,306.8c-7.7-5.9-26.3-20.2-25-67.5c1.3-47.3,51.3-48.1,85.2-35.4
	c33.9,12.6,36.5,45.7,36.5,45.7c3.9,14.4,1.3,56.8-22.4,80.6C337.5,354,294.6,312.8,286.9,306.8z"/>
</svg>
