<?xml version="1.0" encoding="utf-8"?>
<!-- Generator: Adobe Illustrator 15.0.0, SVG Export Plug-In . SVG Version: 6.00 Build 0)  -->
<!DOCTYPE svg PUBLIC "-//W3C//DTD SVG 1.1//EN" "http://www.w3.org/Graphics/SVG/1.1/DTD/svg11.dtd">
<svg version="1.1" id="Layer_1" xmlns="http://www.w3.org/2000/svg" xmlns:xlink="http://www.w3.org/1999/xlink" x="0px" y="0px"
	 width="100px" height="100px" viewBox="0 0 500 500" enable-background="new 0 0 500 500" xml:space="preserve" transform="rotate(180)">
<path fill="#fff" d="M435.743,371.838c0.409-1.23,0.352-2.367-0.392-2.971l-56.061-45.955l-0.146,0.154
	c-0.277-0.781-0.768-1.451-1.583-1.799l-90.931-39.1c-0.117-0.053-0.257-0.027-0.373-0.062c1.022-3.047,1.609-6.254,1.659-9.588
	l81.212,9.133c0.146,0.012,0.287-0.049,0.432-0.049l-0.257,0.504l57.596,23.854c0.729,0.301,1.635-0.059,2.455-0.781l48.031,20.785
	l-46.002-25.068c0.028-1.111-0.301-2.029-1.059-2.344l-57.353-23.748l-0.079,0.16c-0.426-0.574-0.994-1-1.746-1.082l-84.128-9.457
	c-0.85-3.436-2.275-6.668-4.159-9.627l74.806-34.655c0.688-0.318,1.098-0.906,1.311-1.58l0.131,0.128l46.896-40.668
	c0.617-0.534,0.646-1.514,0.267-2.558l35.71-38.327l-38.989,34.904c-1.01-0.423-1.981-0.481-2.583,0.038l-47.09,40.842l0.403,0.403
	c-0.14,0.04-0.296,0.027-0.421,0.086l-75.631,35.031c-1.359-1.327-2.835-2.559-4.407-3.681l30.24-74.215
	c0.293-0.704,0.186-1.41-0.116-2.052l0.187,0.008l6.589-61.722c0.087-0.813-0.554-1.543-1.549-2.05V26.316l-4.77,78.153
	c-1.009,0.382-1.736,0.999-1.825,1.776l-6.62,61.982l0.573,0.019c-0.077,0.126-0.192,0.222-0.251,0.354L266.3,240.797
	c-0.202-0.092-0.402-0.191-0.605-0.281c0.523-2.713,0.747-5.636,0.427-8.834c0,0,0.358-2.594-3.582-4.561l4.795-7.64l-10.739-13.214
	l4.543,11.047l-1.222,8.822c-2.442-0.706-5.814-1.194-10.547-1.194c-4.736,0-8.107,0.488-10.549,1.194l-1.223-8.822l4.541-11.047
	l-10.736,13.214l4.796,7.64c-3.946,1.967-3.583,4.561-3.583,4.561c-0.236,2.354-0.174,4.559,0.081,6.641L204.282,168.6
	c-0.055-0.133-0.174-0.227-0.25-0.354l0.571-0.02l-6.617-61.982c-0.085-0.777-0.815-1.394-1.822-1.776l-4.772-78.153v78.413
	c-0.993,0.508-1.635,1.238-1.55,2.05l6.59,61.721l0.184-0.008c-0.301,0.644-0.405,1.35-0.116,2.053l29.962,73.523
	c-1.793,1.194-3.456,2.525-4.991,3.975l-74.763-34.634c-0.131-0.061-0.287-0.046-0.425-0.086l0.403-0.403l-47.092-40.841
	c-0.597-0.52-1.567-0.462-2.58-0.039l-38.991-34.904l35.713,38.327c-0.379,1.043-0.352,2.023,0.265,2.557l46.895,40.668l0.128-0.128
	c0.218,0.675,0.624,1.261,1.311,1.58l73.836,34.197c-2.057,3.135-3.601,6.566-4.487,10.229l-82.828,9.314
	c-0.752,0.08-1.323,0.508-1.743,1.08l-0.08-0.16l-57.354,23.748c-0.757,0.316-1.087,1.232-1.061,2.346l-45.999,25.064l48.028-20.783
	c0.823,0.725,1.728,1.082,2.458,0.783l57.595-23.854l-0.257-0.506c0.143,0,0.287,0.062,0.432,0.047l79.94-8.992
	c0.071,3.432,0.699,6.729,1.793,9.838l-90.165,38.771c-0.816,0.352-1.308,1.02-1.586,1.803l-0.145-0.156l-56.061,45.955
	c-0.737,0.605-0.801,1.74-0.39,2.973L0,437.086l68.016-61.121c1.15,0.514,2.266,0.596,2.972,0.021l56.295-46.156l-0.454-0.48
	c0.164-0.037,0.342-0.018,0.494-0.086l89.57-38.514c0.697,0.98,1.427,1.936,2.222,2.842c-33.356,13.09-57.146,47.178-57.146,87.188
	c0,51.307,39.127,92.906,87.395,92.906c48.265,0,87.39-41.602,87.39-92.906c0-40.01-23.787-74.098-57.148-87.188
	c0.912-1.037,1.732-2.137,2.516-3.264l90.557,38.938c0.15,0.068,0.331,0.049,0.495,0.086l-0.456,0.48l56.294,46.158
	c0.704,0.572,1.82,0.49,2.975-0.025L500,437.086L435.743,371.838z"/>
</svg>
